# xmcd
#
# Track frame offsets:
#	150
#	16070
#	29047
#	46780
#	61165
#	78770
#	94179
#	108160
#	125977
#	140202
#	160047
#	173587
#	188575
#	202282
#	220384
#	238900
#	254327
#	273030
#
# Disc length: 3835 seconds
#
# Revision: 1
# Processed by: cddbd v1.5.1PL2 Copyright (c) Steve Scherf et al.
# Submitted via: EasyCDDAExtractor 6.5.7.1
#
DISCID=fc0ef912
DTITLE=Various Artist - Isto é Gauchada Tchê! vol 3
DYEAR=1900
DGENRE=Gaúchas
TTITLE0=Os Lendários - Peleia na Igreja
TTITLE1=Grupo Raízes - Chimarrão e mé
TTITLE2=Grupo Reponte - Cara feia não me assusta
TTITLE3=José Araújo - Sou quebra-queixo
TTITLE4=Francisco Vargas - Vermelho e cabeçudo
TTITLE5=Os Chiripás - Te arramanga e vem
TTITLE6=Os Mateadores - Um tal de Mário Cuiudo
TTITLE7=Elton Saldanha - Quilombo dos Manaus
TTITLE8=Os Orelhanos - Bugio Orelhano
TTITLE9=Leonardo - Acidente Campeiro
TTITLE10=Os Mirins - O ronco da porca preta
TTITLE11=Xirú Missioneiro - O rabo da comadre
TTITLE12=Grupo Estampa - Baqueando o Mocotó
TTITLE13=Tio Nonato - Véia baguala
TTITLE14=Grupo Legendas - Salta pra fora
TTITLE15=De Lima e Leninha - Causo do galo velho
TTITLE16=Grupo Invernada - Surungo de Prendas
TTITLE17=Ernesto Nunes - Macho não usa brinco
EXTD=
EXTT0=
EXTT1=
EXTT2=
EXTT3=
EXTT4=
EXTT5=
EXTT6=
EXTT7=
EXTT8=
EXTT9=
EXTT10=
EXTT11=
EXTT12=
EXTT13=
EXTT14=
EXTT15=
EXTT16=
EXTT17=
PLAYORDER=
